<svg xmlns="http://www.w3.org/2000/svg" xmlns:xlink="http://www.w3.org/1999/xlink" width="1920" height="1080" viewBox="0 0 1920 1080">
  <defs>
    <linearGradient id="linear-gradient" x1="0.977" y1="0.5" x2="0" y2="0.5" gradientUnits="objectBoundingBox">
      <stop offset="0" stop-color="#a8ff3e"/>
      <stop offset="1" stop-color="#f4ff61"/>
    </linearGradient>
    <linearGradient id="linear-gradient-3" x1="0.209" y1="0.552" x2="0.88" y2="0.56" gradientUnits="objectBoundingBox">
      <stop offset="0" stop-color="#27aa80"/>
      <stop offset="1" stop-color="#32ff6a"/>
    </linearGradient>
    <linearGradient id="linear-gradient-4" x1="0.437" y1="0.527" x2="0.973" y2="0.527" xlink:href="#linear-gradient-3"/>
    <clipPath id="clip-Web_1920_1">
      <rect width="1920" height="1080"/>
    </clipPath>
  </defs>
  <g id="Web_1920_1" data-name="Web 1920 – 1" clip-path="url(#clip-Web_1920_1)">
    <rect width="1920" height="1080" fill="rgba(140,186,81,0)"/>
    <path id="Union_2" data-name="Union 2" d="M26,1080a26,26,0,0,1-12.136-49A26,26,0,0,1,26,982H512.332a26,26,0,1,1,0,52h-8.8a26,26,0,0,1-16.615,46Zm-3-98a23,23,0,1,1,0-46h3a26,26,0,1,1,0-52H486.914a26,26,0,1,1,0,52H441.8a23,23,0,0,1,0,46Zm3-98a26,26,0,1,1,0-52H512.332a26,26,0,1,1,0,52Zm0-52a26,26,0,1,1,0-52,26,26,0,1,1,0-52H502.347a26,26,0,1,1,0,52H461.495a26,26,0,1,1,0,52Zm0-104a26,26,0,1,1,0-52H438.8a26,26,0,1,1,0,52Zm0-52a26,26,0,0,1,0-52,26,26,0,1,1,0-52H422.347a26,26,0,1,1,0,52h39.148a26,26,0,0,1,0,52Zm0-104a26,26,0,0,1,0-52H471.481a26,26,0,0,1,0,52Zm0-52a26,26,0,1,1,0-52,26,26,0,1,1,0-52H461.495a26,26,0,0,1,0,52H438.8a26,26,0,1,1,0,52Zm0-104a26,26,0,1,1,0-52H391.594a26,26,0,1,1,0,52Zm0-52a26,26,0,0,1,0-52,26,26,0,0,1,0-52H486.914a26,26,0,1,1,0,52H438.8a26,26,0,1,1,0,52Zm0-104a26,26,0,1,1,0-52H512.332a26,26,0,1,1,0,52Zm0-52a26,26,0,1,1,0-52,26,26,0,1,1,0-52H486.914a26,26,0,1,1,0,52H555a26,26,0,1,1,0,52Zm0-104a26,26,0,1,1,0-52H512.332a26,26,0,1,1,0,52Zm0-52A26,26,0,0,1,26,0H438.8a26,26,0,1,1,0,52Z" transform="translate(-115)" fill="url(#linear-gradient)"/>
    <path id="Union_3" data-name="Union 3" d="M431,1774a26,26,0,0,1-12.136-49A26,26,0,0,1,431,1676h588.254a26,26,0,1,1,0,52h-13.616a26,26,0,0,1-16.615,46Zm-3-98a23,23,0,1,1,0-46h3a26,26,0,0,1,0-52H989.023a26,26,0,1,1,0,52H934.8a23,23,0,0,1,0,46Zm3-98a26,26,0,1,1,0-52h588.254a26,26,0,1,1,0,52Zm0-52a26,26,0,0,1,0-52,26,26,0,0,1,0-52h576.378a26,26,0,0,1,0,52H958.793a26,26,0,0,1,0,52Zm0-104a26,26,0,1,1,0-52H931.8a26,26,0,1,1,0,52Zm0-52a26,26,0,1,1,0-52,26,26,0,1,1,0-52h576.378a26,26,0,1,1,0,52H958.793a26,26,0,0,1,0,52Zm0-104a26,26,0,1,1,0-52H970.669a26,26,0,0,1,0,52Zm0-52a26,26,0,0,1,0-52,26,26,0,1,1,0-52H958.793a26,26,0,1,1,0,52H931.8a26,26,0,0,1,0,52Zm0-104a26,26,0,1,1,0-52H875.656a26,26,0,1,1,0,52Zm0-52a26,26,0,1,1,0-52,26,26,0,0,1,0-52H989.023a26,26,0,1,1,0,52H931.8a26,26,0,1,1,0,52Zm0-104a26,26,0,1,1,0-52h588.254a26,26,0,1,1,0,52Zm0-52a26,26,0,1,1,0-52,26,26,0,1,1,0-52H989.023a26,26,0,1,1,0,52H1070a26,26,0,1,1,0,52Zm0-104a26,26,0,1,1,0-52h588.254a26,26,0,1,1,0,52Zm0-52a26,26,0,1,1,0-52H931.8a26,26,0,0,1,0,52Z" transform="translate(2604 1774) rotate(180)" fill="url(#linear-gradient)"/>
    <path id="Union_1" data-name="Union 1" d="M23,1080a23,23,0,1,1,0-46h421.89a23,23,0,1,1,0,46Zm3-46a26,26,0,1,1,0-52H465.079a26,26,0,0,1,0,52Zm-3-52a23,23,0,1,1,0-46h3a26,26,0,1,1,0-52H441.891a26,26,0,1,1,0,52H401a23,23,0,0,1,0,46Zm3-98a26,26,0,1,1,0-52H465.079a26,26,0,0,1,0,52Zm0-52a26,26,0,1,1,0-52,26,26,0,1,1,0-52H455.969a26,26,0,1,1,0,52H418.7a26,26,0,1,1,0,52Zm0-104a26,26,0,1,1,0-52H398a26,26,0,1,1,0,52Zm0-52a26,26,0,0,1,0-52,26,26,0,1,1,0-52H397.969a26,26,0,0,1,0,52H418.7a26,26,0,0,1,0,52Zm0-104a26,26,0,0,1,0-52H427.812a26,26,0,0,1,0,52Zm0-52a26,26,0,1,1,0-52,26,26,0,1,1,0-52H418.7a26,26,0,1,1,0,52H398a26,26,0,1,1,0,52Zm0-104a26,26,0,1,1,0-52H355.937a26,26,0,1,1,0,52Zm0-52a26,26,0,0,1,0-52,26,26,0,0,1,0-52H441.891a26,26,0,0,1,0,52H398a26,26,0,0,1,0,52Zm0-104a26,26,0,1,1,0-52H465.079a26,26,0,0,1,0,52Zm0-52a26,26,0,1,1,0-52,26,26,0,1,1,0-52H441.891a26,26,0,1,1,0,52H504a26,26,0,1,1,0,52Zm0-104a26,26,0,1,1,0-52H465.079a26,26,0,0,1,0,52Zm0-52A26,26,0,0,1,26,0H398a26,26,0,0,1,0,52Z" transform="translate(-115)" fill="url(#linear-gradient-3)"/>
    <path id="Union_4" data-name="Union 4" d="M431,1774a26,26,0,0,1-12.136-49A26,26,0,0,1,431,1676H972a26,26,0,1,1,0,52H960.615A26,26,0,0,1,944,1774Zm-3-98a23,23,0,1,1,0-46h3a26,26,0,0,1,0-52H944a26,26,0,1,1,0,52H894a23,23,0,1,1,0,46Zm3-98a26,26,0,1,1,0-52H972a26,26,0,1,1,0,52Zm0-52a26,26,0,0,1,0-52,26,26,0,0,1,0-52H961a26,26,0,0,1,0,52H916a26,26,0,0,1,0,52Zm0-104a26,26,0,1,1,0-52H891a26,26,0,1,1,0,52Zm0-52a26,26,0,1,1,0-52,26,26,0,1,1,0-52H961a26,26,0,1,1,0,52H916a26,26,0,0,1,0,52Zm0-104a26,26,0,1,1,0-52H927a26,26,0,0,1,0,52Zm0-52a26,26,0,0,1,0-52,26,26,0,1,1,0-52H916a26,26,0,1,1,0,52H891a26,26,0,1,1,0,52Zm0-104a26,26,0,1,1,0-52H839a26,26,0,1,1,0,52Zm0-52a26,26,0,1,1,0-52,26,26,0,0,1,0-52H944a26,26,0,0,1,0,52H891a26,26,0,1,1,0,52Zm0-104a26,26,0,1,1,0-52H972a26,26,0,1,1,0,52Zm0-52a26,26,0,1,1,0-52,26,26,0,1,1,0-52H944a26,26,0,1,1,0,52h75a26,26,0,0,1,0,52Zm0-104a26,26,0,1,1,0-52H972a26,26,0,1,1,0,52Zm0-52a26,26,0,1,1,0-52H891a26,26,0,1,1,0,52Z" transform="translate(2604 1774) rotate(180)" fill="url(#linear-gradient-4)"/>
  </g>
</svg>
